<?xml version="1.0" encoding="UTF-8"?>
<svg id="Layer_1" data-name="Layer 1" xmlns="http://www.w3.org/2000/svg" viewBox="0 0 3307.12 3144.81">
  <defs>
    <style>
      .cls-1 {
        fill: #c6d7e3;
      }

      .cls-2 {
        font-family: MicrosoftTaiLe, 'Microsoft Tai Le';
        font-size: 234.49px;
      }

      .cls-2, .cls-3 {
        fill: #010101;
      }

      .cls-3 {
        font-family: ArialRoundedMTBold, 'Arial Rounded MT Bold';
        font-size: 440.17px;
      }

      .cls-4 {
        fill: #9aa3af;
      }
    </style>
  </defs>
  <g>
    <polygon points="2955.69 2455.37 2953.88 2458.98 2941.19 2458.91 2943 2455.3 2955.69 2455.37"/>
    <polygon points="862.16 1895.1 863.98 1896.92 862.16 1898.74 862.16 1895.1"/>
    <polygon points="1262.32 54.37 1264.14 56.19 1262.32 58.01 1262.32 54.37"/>
    <polygon points="0 2713.61 1.82 2715.42 0 2717.24 0 2713.61"/>
    <polygon points="2026.26 2913.68 2028.08 2915.5 2026.26 2917.32 2026.26 2913.68"/>
    <polygon points="2280.9 2939.15 2282.72 2940.97 2280.9 2942.79 2280.9 2939.15"/>
    <polygon points="1851.64 2942.79 1853.46 2944.61 1851.64 2946.42 1851.64 2942.79"/>
    <g>
      <rect x="1937.15" y="61.69" width="7.23" height="3.55"/>
      <polygon points="2131.75 1978.77 2133.57 1980.59 2131.75 1982.41 2131.75 1978.77"/>
      <polygon points="2131.75 214.43 2133.57 216.25 2131.75 218.07 2131.75 214.43"/>
      <polygon points="2524.64 498.18 2526.46 500 2524.64 501.82 2524.64 498.18"/>
      <polygon points="2411.86 1749.59 2413.68 1751.41 2411.86 1753.22 2411.86 1749.59"/>
      <polygon points="723.92 520.01 725.74 521.83 723.92 523.65 723.92 520.01"/>
      <polygon points="2470.07 1662.28 2471.89 1664.1 2470.07 1665.92 2470.07 1662.28"/>
      <polygon points="1928.04 2066.08 1929.86 2067.9 1928.04 2069.71 1928.04 2066.08"/>
      <polygon points="1171.37 2076.99 1173.19 2078.81 1171.37 2080.63 1171.37 2076.99"/>
      <polygon points="1844.37 2087.9 1846.19 2089.72 1844.37 2091.54 1844.37 2087.9"/>
      <path d="M2731.39,1099.35c0,607.15-492.19,1099.35-1099.35,1099.35s-1099.35-492.19-1099.35-1099.35S1024.89,0,1632.04,0s1099.35,492.19,1099.35,1099.35ZM2715.18,1099.05c0-598.42-485.11-1083.53-1083.53-1083.53S548.12,500.63,548.12,1099.05s485.11,1083.53,1083.53,1083.53,1083.53-485.11,1083.53-1083.53Z"/>
      <path d="M2638.82,1098.64c0,556.32-450.99,1007.32-1007.32,1007.32s-1007.32-450.99-1007.32-1007.32S1075.18,91.32,1631.51,91.32s1007.32,450.99,1007.32,1007.32ZM2624.06,1098.39c0-547.75-444.04-991.79-991.79-991.79s-991.79,444.04-991.79,991.79,444.04,991.79,991.79,991.79,991.79-444.04,991.79-991.79Z"/>
      <polygon points="1025.86 1989.68 1027.68 1991.5 1025.86 1993.32 1025.86 1989.68"/>
      <path class="cls-4" d="M1662.93,801.46c61.86,58.81,114.28,150.15,148.7,227.75,25.84-36.78,284.12-130.48,304.01-114.8,23.26,114.6,7.25,231.52-16.96,344.25,103.95,5.64,205.49,29.76,300.75,71.25,11.52,31.82-79.43,146.26-102.06,170.58-174.31,187.38-440.56,220.17-664.05,99.73-59.36,20.27-110.31,47.48-172.72,60.26-252.12,51.62-504.98-87.95-603.43-323.05,86.25-57.81,201.43-70.88,303.56-78.81-34.47-112.49-32.2-232.91-20.06-349.23,107.06,23.71,214.82,56.25,307.2,116.19,42.46-93.62,99.86-183.48,178.12-250.78,11.08-.84,28.9,19.02,36.94,26.66ZM1638.08,822.57c-22.37-2.7-27.75,14.09-40.75,28.82-22.68,25.71-119.41,160.99-121.38,187.74,61.64,60.44,120.85,124.19,148.38,208.44,43.46-73.6,86.39-150.85,159.93-198.52l-146.18-226.48ZM1238.64,960.23l-79.78-14.34c-14.79,104.67,7.16,208.22,28.85,309.85,76.82,10.56,148.7,15.43,218.27,53.65-11.28-89.24-2.05-173.38,32.5-255.91-4.02-10.66-180.19-103.07-207.05-86.06l7.22-7.19ZM2067.43,1261.44c31.98-100.63,44.61-209.75,26.33-314.07-98.93,10.35-189.65,55.95-272.96,107.66,35,78.06,47.73,166.23,32.69,250.73,69.48-24.75,139.05-44.86,213.94-44.32ZM1473.75,1085.4l-16.77-1.56c-31.12,73.46-30.49,154.89-20.22,233.02,57.36,49.82,118.47,85.47,154.73,156.23-13.84-55,20.94-133.86,13.7-182.8-5.77-39.04-97.5-184.41-131.44-204.89ZM1802.05,1084.41c-12.3-9.4-60.17,45.8-70.14,57.98-31.03,37.92-94.12,128.76-81.81,175.79,4.62,17.66,11.82,31.69,13.78,48.03,3.93,32.75,1.88,66.99,7.73,99.62,18.32-21.56,31.54-46.32,50.79-67.39,18.25-19.98,93.79-73.34,98.62-83.27,23.17-47.63.48-179.23-18.98-230.76ZM2057.16,1283.97c-72.22,9.13-143.87,25.24-209.22,58.11-28.4,92.26-70.12,171.75-154.45,223.79-.01,14.03,101.36-23.46,110.92-27.23,122.16-48.23,202.33-134.04,252.76-254.67ZM2266.77,1310.94c-58.74-14.68-117.56-23.2-178.09-26.64-46.68,141.01-161.3,250.87-303.81,293.01-28.85,8.53-60.98,7.98-87.83,19.44l21.82-3.55-7.27,10.82c37.36,5.81,69.9,25.22,106.83,33.27,233.24,50.86,446.1-88.23,542.78-291.64-5.77-9.98-78.61-30.77-94.43-34.72ZM1172.73,1288.09c-91.6,5.1-188.21,17.14-268.24,63.95,113.77,234.06,414.77,384.28,657.93,242.92-175.98-19.22-332-138.27-389.69-306.87ZM1557.55,1558c-7.55-9.24-40.63-24.12-51.48-33.98-54.84-49.83-72.31-114.01-94.31-182.17-65.31-26.23-131.41-46.38-202.15-50.63,50.43,150.21,200.05,253.3,352.83,276.42.58-.38-3.65-8.13-4.89-9.65ZM1459.13,1372.33c-2.74-1.84-11.12-9.15-13.02-6.57,23.82,80.07,82.78,144.44,152.66,187.39-30.66-62.48-80.76-141.1-139.64-180.81ZM1709.39,1514.61c42.16-36.99,87.13-95.11,96.73-150.63-55.19,47.41-103.09,105.13-130.99,172.76l1.87,5.47c12.13-7.76,21.74-18.26,32.39-27.6Z"/>
      <path class="cls-1" d="M1637.71,299.29c7.31,5.35,86.95,139.02,94.55,154.57,86.95,177.96-140.08,267.84-206.8,137.68-55.58-108.45,48.06-206.07,97.14-293.5l15.11,1.24ZM1543.78,509.66l-17.87,8.67c-.33,45.64,22.65,99.66,76.52,92.6-44.87-35.66-51.19-42.27-58.65-101.27Z"/>
      <path class="cls-1" d="M1899.6,590.4c22.27,5.99,6.15,35.54,28.49,45.98l1.8-21.79c60.53,45.97-12.78,142.64-76.23,96.19-54.63-39.99-18.67-137.76,45.93-120.39Z"/>
      <path class="cls-1" d="M1319.88,608.48c54.68-65.15,165.71,40.75,86.28,99.02-69.4,50.92-128.51-48.71-86.28-99.02ZM1333.23,618.25c-17.98,4.03-19.02,33.6-18.12,47.25,13.01-10.78,17.6-30.99,18.12-47.25Z"/>
      <polygon points="1902.57 2047.89 1904.39 2049.71 1902.57 2051.52 1902.57 2047.89"/>
      <polygon points="1287.78 170.78 1289.6 172.6 1287.78 174.42 1287.78 170.78"/>
      <polygon points="1989.88 174.42 1991.7 176.24 1989.88 178.06 1989.88 174.42"/>
      <polygon points="880.35 1731.4 882.17 1733.22 880.35 1735.04 880.35 1731.4"/>
      <polygon points="2437.33 1665.92 2439.15 1667.74 2437.33 1669.56 2437.33 1665.92"/>
      <polygon points="2513.72 1531.32 2515.54 1533.14 2513.72 1534.96 2513.72 1531.32"/>
      <polygon points="924 1782.33 925.82 1784.15 924 1785.97 924 1782.33"/>
      <polygon points="1986.24 2018.78 1988.06 2020.6 1986.24 2022.42 1986.24 2018.78"/>
      <polygon points="2048.08 1287.59 2049.9 1289.4 2048.08 1291.22 2048.08 1287.59"/>
    </g>
  </g>
  <text class="cls-3" transform="translate(6.02 2764.72)"><tspan x="0" y="0">AYA AL-HROUT</tspan></text>
  <text class="cls-2" transform="translate(702.85 3064.09)"><tspan x="0" y="0">LIFE COACH</tspan></text>
</svg>